<svg width="16" height="16" viewBox="0 0 16 16" fill="none" xmlns="http://www.w3.org/2000/svg">
<mask id="path-1-inside-1" fill="white">
<path d="M0.34974 15.9999C0.26022 15.9998 0.174396 15.9642 0.111135 15.9008C0.0709557 15.86 0.041658 15.8098 0.025927 15.7548C0.010196 15.6997 0.00853509 15.6416 0.0210963 15.5857L0.921489 11.7275C0.0313316 10.0371 -0.224509 8.08399 0.20024 6.22136C0.62499 4.35873 1.70228 2.70959 3.23728 1.57223C4.77227 0.434857 6.66361 -0.115645 8.56921 0.0202862C10.4748 0.156218 12.2689 0.969608 13.6269 2.31334C14.9849 3.65707 15.8172 5.44243 15.9733 7.34649C16.1293 9.25055 15.5988 11.1476 14.4777 12.6945C13.3567 14.2415 11.719 15.3361 9.86096 15.7805C8.00292 16.2249 6.04719 15.9898 4.34748 15.1175L0.421771 15.9909L0.34974 15.9999ZM4.40151 14.4242C4.45802 14.4243 4.51366 14.4382 4.56358 14.4647C5.61976 15.0354 6.80259 15.3311 8.00308 15.3246C9.44998 15.3246 10.8644 14.8955 12.0675 14.0917C13.2705 13.2878 14.2082 12.1453 14.7619 10.8085C15.3156 9.47173 15.4605 8.00079 15.1782 6.58169C14.8959 5.16258 14.1992 3.85905 13.176 2.83593C12.1529 1.81282 10.8494 1.11606 9.4303 0.833786C8.01119 0.551509 6.54025 0.696384 5.20348 1.25009C3.86672 1.8038 2.72416 2.74147 1.9203 3.94453C1.11644 5.14759 0.687387 6.562 0.687387 8.00891C0.684019 9.23551 0.993941 10.4427 1.58778 11.5159C1.62724 11.5889 1.63845 11.6738 1.61929 11.7545L0.799936 15.212L4.32947 14.4287L4.40151 14.4242Z"/>
</mask>
<path d="M0.34974 15.9999L0.348859 16.9999L0.41156 16.9999L0.473777 16.9922L0.34974 15.9999ZM0.111135 15.9008L-0.601367 16.6026L-0.596412 16.6075L0.111135 15.9008ZM0.0210963 15.5857L-0.952769 15.3584L-0.954547 15.3663L0.0210963 15.5857ZM0.921489 11.7275L1.89532 11.9548L1.98008 11.5916L1.8063 11.2616L0.921489 11.7275ZM4.34748 15.1175L4.80405 14.2278L4.48279 14.063L4.13032 14.1414L4.34748 15.1175ZM0.421771 15.9909L0.545809 16.9832L0.592755 16.9773L0.638938 16.967L0.421771 15.9909ZM4.40151 14.4242L4.40313 13.4242L4.3711 13.4242L4.33914 13.4262L4.40151 14.4242ZM4.56358 14.4647L5.03896 13.5849L5.03273 13.5816L4.56358 14.4647ZM8.00308 15.3246V14.3246L7.99764 14.3246L8.00308 15.3246ZM0.687387 8.00891L1.68739 8.01165V8.00891H0.687387ZM1.58778 11.5159L2.46744 11.0402L2.46278 11.0318L1.58778 11.5159ZM1.61929 11.7545L0.646338 11.5235L0.646243 11.5239L1.61929 11.7545ZM0.799936 15.212L-0.173115 14.9815L-0.541034 16.534L1.0166 16.1883L0.799936 15.212ZM4.32947 14.4287L4.26711 13.4307L4.18911 13.4355L4.11281 13.4525L4.32947 14.4287ZM0.35062 14.9999C0.526231 15 0.694589 15.0699 0.818682 15.1942L-0.596412 16.6075C-0.345797 16.8584 -0.0057912 16.9996 0.348859 16.9999L0.35062 14.9999ZM0.82362 15.1992C0.900873 15.2776 0.957204 15.3742 0.987451 15.48L-0.935597 16.0295C-0.873888 16.2455 -0.758961 16.4425 -0.601349 16.6025L0.82362 15.1992ZM0.987451 15.48C1.0177 15.5859 1.02089 15.6977 0.996739 15.8051L-0.954547 15.3663C-1.00382 15.5855 -0.997305 15.8135 -0.935597 16.0295L0.987451 15.48ZM0.994929 15.813L1.89532 11.9548L-0.0523438 11.5003L-0.952737 15.3584L0.994929 15.813ZM1.8063 11.2616C1.02742 9.78249 0.803556 8.07349 1.17521 6.44369L-0.774731 5.99903C-1.25257 8.09449 -0.964753 10.2918 0.0366737 12.1935L1.8063 11.2616ZM1.17521 6.44369C1.54687 4.81389 2.4895 3.3709 3.83262 2.3757L2.64193 0.768752C0.915068 2.04829 -0.296888 3.90357 -0.774731 5.99903L1.17521 6.44369ZM3.83262 2.3757C5.17574 1.3805 6.83066 0.898812 8.49806 1.01775L8.64036 -0.977179C6.49656 -1.1301 4.3688 -0.510787 2.64193 0.768752L3.83262 2.3757ZM8.49806 1.01775C10.1655 1.13669 11.7353 1.84841 12.9235 3.02417L14.3302 1.60251C12.8025 0.0908076 10.7842 -0.824256 8.64036 -0.977179L8.49806 1.01775ZM12.9235 3.02417C14.1118 4.19994 14.84 5.76213 14.9766 7.42818L16.9699 7.2648C16.7943 5.12273 15.858 3.11421 14.3302 1.60251L12.9235 3.02417ZM14.9766 7.42818C15.1131 9.09423 14.649 10.7542 13.668 12.1077L15.2875 13.2813C16.5487 11.5411 17.1455 9.40687 16.9699 7.2648L14.9766 7.42818ZM13.668 12.1077C12.6871 13.4613 11.2541 14.4191 9.62834 14.808L10.0936 16.7531C12.1839 16.2531 14.0262 15.0216 15.2875 13.2813L13.668 12.1077ZM9.62834 14.808C8.00256 15.1968 6.29129 14.991 4.80405 14.2278L3.89092 16.0072C5.80309 16.9885 8.00329 17.2531 10.0936 16.7531L9.62834 14.808ZM4.13032 14.1414L0.204604 15.0148L0.638938 16.967L4.56465 16.0936L4.13032 14.1414ZM0.297733 14.9986L0.225702 15.0076L0.473777 16.9922L0.545809 16.9832L0.297733 14.9986ZM4.39988 15.4242C4.29336 15.424 4.18849 15.3978 4.09442 15.3478L5.03273 13.5816C4.83883 13.4786 4.62269 13.4246 4.40313 13.4242L4.39988 15.4242ZM4.0882 15.3445C5.29203 15.995 6.6402 16.332 8.00851 16.3246L7.99764 14.3246C6.96497 14.3302 5.94749 14.0759 5.03895 13.5849L4.0882 15.3445ZM8.00308 16.3246C9.64776 16.3246 11.2555 15.8369 12.623 14.9232L11.5119 13.2602C10.4733 13.9542 9.2522 14.3246 8.00308 14.3246V16.3246ZM12.623 14.9232C13.9905 14.0094 15.0564 12.7107 15.6858 11.1912L13.838 10.4258C13.36 11.5799 12.5505 12.5662 11.5119 13.2602L12.623 14.9232ZM15.6858 11.1912C16.3152 9.67169 16.4798 7.99968 16.159 6.3866L14.1974 6.77678C14.4411 8.0019 14.316 9.27178 13.838 10.4258L15.6858 11.1912ZM16.159 6.3866C15.8381 4.77351 15.0461 3.2918 13.8832 2.12883L12.4689 3.54304C13.3522 4.4263 13.9537 5.55165 14.1974 6.77678L16.159 6.3866ZM13.8832 2.12883C12.7202 0.965856 11.2385 0.173864 9.62539 -0.146999L9.23521 1.81457C10.4603 2.05826 11.5857 2.65978 12.4689 3.54304L13.8832 2.12883ZM9.62539 -0.146999C8.0123 -0.467862 6.34029 -0.303183 4.8208 0.326211L5.58617 2.17397C6.74021 1.69595 8.01008 1.57088 9.23521 1.81457L9.62539 -0.146999ZM4.8208 0.326211C3.30131 0.955606 2.00257 2.02145 1.08883 3.38896L2.75177 4.5001C3.44575 3.46149 4.43213 2.65199 5.58617 2.17397L4.8208 0.326211ZM1.08883 3.38896C0.175093 4.75647 -0.312613 6.36422 -0.312613 8.00891H1.68739C1.68739 6.75978 2.0578 5.53871 2.75177 4.5001L1.08883 3.38896ZM-0.312609 8.00616C-0.316444 9.40305 0.0365035 10.7778 0.712783 12.0001L2.46278 11.0318C1.95138 10.1075 1.68448 9.06797 1.68738 8.01165L-0.312609 8.00616ZM0.708157 11.9916C0.630756 11.8485 0.608751 11.6819 0.646338 11.5235L2.59225 11.9855C2.66816 11.6658 2.62372 11.3293 2.4674 11.0403L0.708157 11.9916ZM0.646243 11.5239L-0.173115 14.9815L1.77299 15.4426L2.59234 11.9851L0.646243 11.5239ZM1.0166 16.1883L4.54614 15.405L4.11281 13.4525L0.583269 14.2358L1.0166 16.1883ZM4.39184 15.4268L4.46387 15.4223L4.33914 13.4262L4.26711 13.4307L4.39184 15.4268Z" fill="white" mask="url(#path-1-inside-1)"/>
</svg>
