<?xml version="1.0" encoding="UTF-8"?>
<svg width="163px" height="18px" viewBox="0 0 163 18" version="1.1" xmlns="http://www.w3.org/2000/svg" xmlns:xlink="http://www.w3.org/1999/xlink">
    <title>btn_google_signin_dark_disabled_web copy</title>
    <g id="btn_google_signin_dark_disabled_web-copy" stroke="none" stroke-width="1" fill="none" fill-rule="evenodd">
        <rect fill="#090909" x="0" y="0" width="163" height="18"></rect>
        <path d="M43.4023438,14.1367188 C44.4915365,14.1367188 45.3540039,13.8917643 45.9897461,13.4018555 C46.6254883,12.9119466 46.9433594,12.2522786 46.9433594,11.4228516 C46.9433594,10.9124349 46.8339844,10.4669596 46.6152344,10.0864258 C46.3964844,9.70589193 46.0524089,9.36865234 45.5830078,9.07470703 C45.1136068,8.78076172 44.4915365,8.51871745 43.7167969,8.28857422 C42.9420573,8.05843099 42.3860677,7.82145182 42.0488281,7.57763672 C41.7115885,7.33382161 41.5429688,7.0296224 41.5429688,6.66503906 C41.5429688,6.23209635 41.699056,5.89485677 42.0112305,5.65332031 C42.3234049,5.41178385 42.7620443,5.29101562 43.3271484,5.29101562 C43.9332682,5.29101562 44.3992513,5.43798828 44.7250977,5.73193359 C45.050944,6.02587891 45.2138672,6.43261719 45.2138672,6.95214844 L45.2138672,6.95214844 L46.9365234,6.95214844 C46.9365234,6.37792969 46.7815755,5.85498047 46.4716797,5.38330078 C46.1617839,4.91162109 45.7356771,4.54817708 45.1933594,4.29296875 C44.6510417,4.03776042 44.0335286,3.91015625 43.3408203,3.91015625 C42.2972005,3.91015625 41.4484049,4.16992188 40.7944336,4.68945312 C40.1404622,5.20898438 39.8134766,5.86979167 39.8134766,6.671875 C39.8134766,7.58789062 40.2669271,8.33072917 41.1738281,8.90039062 C41.6477865,9.19661458 42.2858073,9.46549479 43.0878906,9.70703125 C43.889974,9.94856771 44.4448242,10.1878255 44.7524414,10.4248047 C45.0600586,10.6617839 45.2138672,10.9990234 45.2138672,11.4365234 C45.2138672,11.8375651 45.0623372,12.1599935 44.7592773,12.4038086 C44.4562174,12.6476237 44.0039062,12.7695312 43.4023438,12.7695312 C42.7050781,12.7695312 42.1695964,12.6145833 41.7958984,12.3046875 C41.4222005,11.9947917 41.2353516,11.5572917 41.2353516,10.9921875 L41.2353516,10.9921875 L39.5058594,10.9921875 C39.5058594,11.6165365 39.6733398,12.1634115 40.0083008,12.6328125 C40.3432617,13.1022135 40.8126628,13.4702148 41.4165039,13.7368164 C42.0203451,14.003418 42.6822917,14.1367188 43.4023438,14.1367188 Z M49.4589844,5.55761719 C49.7597656,5.55761719 49.9921875,5.47444661 50.15625,5.30810547 C50.3203125,5.14176432 50.4023438,4.93326823 50.4023438,4.68261719 C50.4023438,4.42740885 50.3203125,4.21549479 50.15625,4.046875 C49.9921875,3.87825521 49.7597656,3.79394531 49.4589844,3.79394531 C49.1582031,3.79394531 48.9269206,3.87825521 48.7651367,4.046875 C48.6033529,4.21549479 48.5224609,4.42740885 48.5224609,4.68261719 C48.5224609,4.93326823 48.6033529,5.14176432 48.7651367,5.30810547 C48.9269206,5.47444661 49.1582031,5.55761719 49.4589844,5.55761719 Z M50.2861328,14 L50.2861328,6.60351562 L48.625,6.60351562 L48.625,14 L50.2861328,14 Z M55.1943359,16.9121094 C56.2197266,16.9121094 57.0343424,16.6318359 57.6381836,16.0712891 C58.2420247,15.5107422 58.5439453,14.7451172 58.5439453,13.7744141 L58.5439453,13.7744141 L58.5439453,6.60351562 L57.046875,6.60351562 L56.9716797,7.34863281 C56.4886068,6.76074219 55.8255208,6.46679688 54.9824219,6.46679688 C54.0891927,6.46679688 53.3725586,6.80973307 52.8325195,7.49560547 C52.2924805,8.18147786 52.0224609,9.09863281 52.0224609,10.2470703 C52.0224609,11.4638672 52.2970378,12.4163411 52.8461914,13.1044922 C53.3953451,13.7926432 54.1028646,14.1367188 54.96875,14.1367188 C55.766276,14.1367188 56.4042969,13.8701172 56.8828125,13.3369141 L56.8828125,13.3369141 L56.8828125,13.8359375 C56.8828125,14.4147135 56.7233073,14.8533529 56.4042969,15.1518555 C56.0852865,15.4503581 55.6500651,15.5996094 55.0986328,15.5996094 C54.351237,15.5996094 53.7223307,15.2965495 53.2119141,14.6904297 L53.2119141,14.6904297 L52.4257812,15.6884766 C52.6946615,16.0530599 53.0877279,16.3481445 53.6049805,16.5737305 C54.1222331,16.7993164 54.6520182,16.9121094 55.1943359,16.9121094 Z M55.3925781,12.7832031 C54.8548177,12.7832031 54.4344076,12.5701497 54.1313477,12.144043 C53.8282878,11.7179362 53.6767578,11.1334635 53.6767578,10.390625 C53.6767578,9.54752604 53.8282878,8.90950521 54.1313477,8.4765625 C54.4344076,8.04361979 54.859375,7.82714844 55.40625,7.82714844 C56.0761719,7.82714844 56.5683594,8.10742188 56.8828125,8.66796875 L56.8828125,8.66796875 L56.8828125,11.921875 C56.5592448,12.4960938 56.0625,12.7832031 55.3925781,12.7832031 Z M62.1054688,14 L62.1054688,8.73632812 C62.4335938,8.13020833 62.9326172,7.82714844 63.6025391,7.82714844 C64.0628255,7.82714844 64.3943685,7.93994141 64.597168,8.16552734 C64.7999674,8.39111328 64.9013672,8.73860677 64.9013672,9.20800781 L64.9013672,9.20800781 L64.9013672,14 L66.5625,14 L66.5625,9.11230469 C66.5351562,7.34863281 65.7513021,6.46679688 64.2109375,6.46679688 C63.3222656,6.46679688 62.6044922,6.79720052 62.0576172,7.45800781 L62.0576172,7.45800781 L62.0097656,6.60351562 L60.4443359,6.60351562 L60.4443359,14 L62.1054688,14 Z M73.1181641,5.55761719 C73.4189453,5.55761719 73.6513672,5.47444661 73.8154297,5.30810547 C73.9794922,5.14176432 74.0615234,4.93326823 74.0615234,4.68261719 C74.0615234,4.42740885 73.9794922,4.21549479 73.8154297,4.046875 C73.6513672,3.87825521 73.4189453,3.79394531 73.1181641,3.79394531 C72.8173828,3.79394531 72.5861003,3.87825521 72.4243164,4.046875 C72.2625326,4.21549479 72.1816406,4.42740885 72.1816406,4.68261719 C72.1816406,4.93326823 72.2625326,5.14176432 72.4243164,5.30810547 C72.5861003,5.47444661 72.8173828,5.55761719 73.1181641,5.55761719 Z M73.9453125,14 L73.9453125,6.60351562 L72.2841797,6.60351562 L72.2841797,14 L73.9453125,14 Z M77.609375,14 L77.609375,8.73632812 C77.9375,8.13020833 78.4365234,7.82714844 79.1064453,7.82714844 C79.5667318,7.82714844 79.8982747,7.93994141 80.1010742,8.16552734 C80.3038737,8.39111328 80.4052734,8.73860677 80.4052734,9.20800781 L80.4052734,9.20800781 L80.4052734,14 L82.0664062,14 L82.0664062,9.11230469 C82.0390625,7.34863281 81.2552083,6.46679688 79.7148438,6.46679688 C78.8261719,6.46679688 78.1083984,6.79720052 77.5615234,7.45800781 L77.5615234,7.45800781 L77.5136719,6.60351562 L75.9482422,6.60351562 L75.9482422,14 L77.609375,14 Z M90.4472656,14 L92.0058594,8.92089844 L93.5917969,14 L94.9589844,14 L96.9755859,6.60351562 L95.3554688,6.60351562 L94.1796875,11.7099609 L92.6416016,6.60351562 L91.390625,6.60351562 L89.8730469,11.6552734 L88.6767578,6.60351562 L87.0566406,6.60351562 L89.0800781,14 L90.4472656,14 Z M99.2451172,5.55761719 C99.5458984,5.55761719 99.7783203,5.47444661 99.9423828,5.30810547 C100.106445,5.14176432 100.188477,4.93326823 100.188477,4.68261719 C100.188477,4.42740885 100.106445,4.21549479 99.9423828,4.046875 C99.7783203,3.87825521 99.5458984,3.79394531 99.2451172,3.79394531 C98.9443359,3.79394531 98.7130534,3.87825521 98.5512695,4.046875 C98.3894857,4.21549479 98.3085938,4.42740885 98.3085938,4.68261719 C98.3085938,4.93326823 98.3894857,5.14176432 98.5512695,5.30810547 C98.7130534,5.47444661 98.9443359,5.55761719 99.2451172,5.55761719 Z M100.072266,14 L100.072266,6.60351562 L98.4111328,6.60351562 L98.4111328,14 L100.072266,14 Z M104.433594,14.1367188 C104.784505,14.1367188 105.149089,14.0843099 105.527344,13.9794922 L105.527344,13.9794922 L105.527344,12.6943359 C105.33138,12.7399089 105.137695,12.7626953 104.946289,12.7626953 C104.65918,12.7626953 104.459798,12.7000326 104.348145,12.574707 C104.236491,12.4493815 104.180664,12.2454427 104.180664,11.9628906 L104.180664,11.9628906 L104.180664,7.83398438 L105.486328,7.83398438 L105.486328,6.60351562 L104.180664,6.60351562 L104.180664,4.80566406 L102.519531,4.80566406 L102.519531,6.60351562 L101.302734,6.60351562 L101.302734,7.83398438 L102.519531,7.83398438 L102.519531,12.0244141 C102.519531,13.4326172 103.157552,14.1367188 104.433594,14.1367188 Z M108.610352,14 L108.610352,8.71582031 C108.938477,8.1233724 109.435221,7.82714844 110.100586,7.82714844 C110.528971,7.82714844 110.853678,7.93310547 111.074707,8.14501953 C111.295736,8.35693359 111.40625,8.71809896 111.40625,9.22851562 L111.40625,9.22851562 L111.40625,14 L113.067383,14 L113.067383,9.16699219 C113.044596,7.36686198 112.244792,6.46679688 110.667969,6.46679688 C109.838542,6.46679688 109.152669,6.78125 108.610352,7.41015625 L108.610352,7.41015625 L108.610352,3.5 L106.949219,3.5 L106.949219,14 L108.610352,14 Z M122.788086,14.1367188 C123.599284,14.1367188 124.323893,14.0159505 124.961914,13.7744141 C125.599935,13.5328776 126.098958,13.1774089 126.458984,12.7080078 L126.458984,12.7080078 L126.458984,8.89355469 L122.685547,8.89355469 L122.685547,10.2060547 L124.736328,10.2060547 L124.736328,12.1542969 C124.36263,12.5553385 123.733724,12.7558594 122.849609,12.7558594 C122.042969,12.7558594 121.412923,12.4584961 120.959473,11.8637695 C120.506022,11.269043 120.279297,10.4339193 120.279297,9.35839844 L120.279297,9.35839844 L120.279297,8.59277344 C120.292969,7.51269531 120.501465,6.69352214 120.904785,6.13525391 C121.308105,5.57698568 121.897135,5.29785156 122.671875,5.29785156 C123.870443,5.29785156 124.56543,5.89713542 124.756836,7.09570312 L124.756836,7.09570312 L126.452148,7.09570312 C126.319987,6.06575521 125.92806,5.27734375 125.276367,4.73046875 C124.624674,4.18359375 123.745117,3.91015625 122.637695,3.91015625 C121.347982,3.91015625 120.343099,4.33284505 119.623047,5.17822266 C118.902995,6.02360026 118.542969,7.19824219 118.542969,8.70214844 L118.542969,8.70214844 L118.542969,9.48144531 C118.556641,10.4202474 118.737793,11.2416992 119.086426,11.9458008 C119.435059,12.6499023 119.930664,13.1910807 120.573242,13.5693359 C121.21582,13.9475911 121.954102,14.1367188 122.788086,14.1367188 Z M131.551758,14.1367188 C132.235352,14.1367188 132.838053,13.9794922 133.359863,13.6650391 C133.881673,13.3505859 134.282715,12.90625 134.562988,12.3320312 C134.843262,11.7578125 134.983398,11.1061198 134.983398,10.3769531 L134.983398,10.3769531 L134.976562,9.98730469 C134.926432,8.92545573 134.590332,8.07324219 133.968262,7.43066406 C133.346191,6.78808594 132.536133,6.46679688 131.538086,6.46679688 C130.863607,6.46679688 130.266602,6.62288411 129.74707,6.93505859 C129.227539,7.24723307 128.824219,7.69384766 128.537109,8.27490234 C128.25,8.85595703 128.106445,9.50878906 128.106445,10.2333984 L128.106445,10.2333984 L128.106445,10.3154297 C128.106445,11.4729818 128.419759,12.3992513 129.046387,13.0942383 C129.673014,13.7892253 130.508138,14.1367188 131.551758,14.1367188 Z M131.551758,12.8105469 C130.991211,12.8105469 130.553711,12.5952148 130.239258,12.1645508 C129.924805,11.7338867 129.767578,11.1380208 129.767578,10.3769531 C129.767578,9.52018229 129.927083,8.87646484 130.246094,8.44580078 C130.565104,8.01513672 130.995768,7.79980469 131.538086,7.79980469 C132.089518,7.79980469 132.525879,8.01855469 132.847168,8.45605469 C133.168457,8.89355469 133.329102,9.4860026 133.329102,10.2333984 C133.329102,11.0764974 133.173014,11.7167969 132.86084,12.1542969 C132.548665,12.5917969 132.112305,12.8105469 131.551758,12.8105469 Z M139.741211,14.1367188 C140.424805,14.1367188 141.027507,13.9794922 141.549316,13.6650391 C142.071126,13.3505859 142.472168,12.90625 142.752441,12.3320312 C143.032715,11.7578125 143.172852,11.1061198 143.172852,10.3769531 L143.172852,10.3769531 L143.166016,9.98730469 C143.115885,8.92545573 142.779785,8.07324219 142.157715,7.43066406 C141.535645,6.78808594 140.725586,6.46679688 139.727539,6.46679688 C139.05306,6.46679688 138.456055,6.62288411 137.936523,6.93505859 C137.416992,7.24723307 137.013672,7.69384766 136.726562,8.27490234 C136.439453,8.85595703 136.295898,9.50878906 136.295898,10.2333984 L136.295898,10.2333984 L136.295898,10.3154297 C136.295898,11.4729818 136.609212,12.3992513 137.23584,13.0942383 C137.862467,13.7892253 138.697591,14.1367188 139.741211,14.1367188 Z M139.741211,12.8105469 C139.180664,12.8105469 138.743164,12.5952148 138.428711,12.1645508 C138.114258,11.7338867 137.957031,11.1380208 137.957031,10.3769531 C137.957031,9.52018229 138.116536,8.87646484 138.435547,8.44580078 C138.754557,8.01513672 139.185221,7.79980469 139.727539,7.79980469 C140.278971,7.79980469 140.715332,8.01855469 141.036621,8.45605469 C141.35791,8.89355469 141.518555,9.4860026 141.518555,10.2333984 C141.518555,11.0764974 141.362467,11.7167969 141.050293,12.1542969 C140.738118,12.5917969 140.301758,12.8105469 139.741211,12.8105469 Z M147.677734,16.9121094 C148.703125,16.9121094 149.517741,16.6318359 150.121582,16.0712891 C150.725423,15.5107422 151.027344,14.7451172 151.027344,13.7744141 L151.027344,13.7744141 L151.027344,6.60351562 L149.530273,6.60351562 L149.455078,7.34863281 C148.972005,6.76074219 148.308919,6.46679688 147.46582,6.46679688 C146.572591,6.46679688 145.855957,6.80973307 145.315918,7.49560547 C144.775879,8.18147786 144.505859,9.09863281 144.505859,10.2470703 C144.505859,11.4638672 144.780436,12.4163411 145.32959,13.1044922 C145.878743,13.7926432 146.586263,14.1367188 147.452148,14.1367188 C148.249674,14.1367188 148.887695,13.8701172 149.366211,13.3369141 L149.366211,13.3369141 L149.366211,13.8359375 C149.366211,14.4147135 149.206706,14.8533529 148.887695,15.1518555 C148.568685,15.4503581 148.133464,15.5996094 147.582031,15.5996094 C146.834635,15.5996094 146.205729,15.2965495 145.695312,14.6904297 L145.695312,14.6904297 L144.90918,15.6884766 C145.17806,16.0530599 145.571126,16.3481445 146.088379,16.5737305 C146.605632,16.7993164 147.135417,16.9121094 147.677734,16.9121094 Z M147.875977,12.7832031 C147.338216,12.7832031 146.917806,12.5701497 146.614746,12.144043 C146.311686,11.7179362 146.160156,11.1334635 146.160156,10.390625 C146.160156,9.54752604 146.311686,8.90950521 146.614746,8.4765625 C146.917806,8.04361979 147.342773,7.82714844 147.889648,7.82714844 C148.55957,7.82714844 149.051758,8.10742188 149.366211,8.66796875 L149.366211,8.66796875 L149.366211,11.921875 C149.042643,12.4960938 148.545898,12.7832031 147.875977,12.7832031 Z M154.71875,14 L154.71875,3.5 L153.057617,3.5 L153.057617,14 L154.71875,14 Z M160.00293,14.1367188 C160.618164,14.1367188 161.173014,14.0148112 161.66748,13.7709961 C162.161947,13.527181 162.557292,13.1842448 162.853516,12.7421875 L162.853516,12.7421875 L161.958008,11.8876953 C161.479492,12.5029297 160.859701,12.8105469 160.098633,12.8105469 C159.556315,12.8105469 159.106283,12.6328125 158.748535,12.2773438 C158.390788,11.921875 158.186849,11.4388021 158.136719,10.828125 L158.136719,10.828125 L162.969727,10.828125 L162.969727,10.1582031 C162.969727,8.98242188 162.69515,8.07324219 162.145996,7.43066406 C161.596842,6.78808594 160.818685,6.46679688 159.811523,6.46679688 C159.17806,6.46679688 158.603841,6.62858073 158.088867,6.95214844 C157.573893,7.27571615 157.173991,7.72802734 156.88916,8.30908203 C156.604329,8.89013672 156.461914,9.54980469 156.461914,10.2880859 L156.461914,10.2880859 L156.461914,10.4931641 C156.461914,11.5960286 156.7889,12.4790039 157.442871,13.1420898 C158.096842,13.8051758 158.950195,14.1367188 160.00293,14.1367188 Z M161.329102,9.61132812 L158.164062,9.61132812 C158.241536,9.04166667 158.42041,8.59733073 158.700684,8.27832031 C158.980957,7.9593099 159.348958,7.79980469 159.804688,7.79980469 C160.264974,7.79980469 160.625,7.94222005 160.884766,8.22705078 C161.144531,8.51188151 161.292643,8.93229167 161.329102,9.48828125 L161.329102,9.48828125 L161.329102,9.61132812 Z" id="SigninwithGoogle" fill="#FFFFFF" fill-rule="nonzero"></path>
        <path d="M9.001,10.71 L9.001,7.362 L17.425,7.362 C17.551,7.929 17.65,8.46 17.65,9.207 C17.65,14.346 14.203,18 9.01,18 C4.042,18 0.01,13.968 0.01,9 C0.01,4.032 4.042,0 9.01,0 C11.44,0 13.474,0.891 15.031,2.349 L12.475,4.833 C11.827,4.221 10.693,3.501 9.01,3.501 C6.031,3.501 3.601,5.976 3.601,9.009 C3.601,12.042 6.031,14.517 9.01,14.517 C12.457,14.517 13.726,12.132 13.96,10.719 L9.001,10.719 L9.001,10.71 Z" id="Shape-Copy" fill="#FFFFFF"></path>
    </g>
</svg>