<svg width="18" height="16" viewBox="0 0 18 16" fill="none" xmlns="http://www.w3.org/2000/svg">
<mask id="path-1-inside-1" fill="white">
<path d="M4.65178 4.57728e-05C3.45661 4.57728e-05 2.26784 0.472382 1.36187 1.42053C-0.450131 3.31678 -0.455336 6.36029 1.35457 8.25798L8.60417 15.8608C8.77968 16.0464 9.11315 16.0464 9.28866 15.8608C11.707 13.33 14.1199 10.7963 16.5383 8.26533C18.3502 6.36905 18.3502 3.32418 16.5383 1.42789C14.7263 -0.468392 11.763 -0.468435 9.95106 1.42789L8.9501 2.46565L7.94914 1.42053C6.97227 0.394298 5.76195 -0.00492371 4.65183 4.57728e-05H4.65178ZM4.65178 0.927407C5.59363 0.927407 6.54042 1.31001 7.27195 2.07557L8.61147 3.48133C8.78698 3.66687 9.12045 3.66687 9.29596 3.48133L10.6281 2.08293C12.0912 0.55179 14.398 0.551823 15.8611 2.08293C17.3241 3.61404 17.3241 6.08655 15.8611 7.61764C13.5577 10.0282 11.2533 12.4421 8.95003 14.8526L2.03899 7.6103C0.57695 6.0773 0.57596 3.60664 2.03899 2.07557C2.77049 1.31002 3.70994 0.927407 4.65178 0.927407Z"/>
</mask>
<path d="M1.36187 1.42053L2.08485 2.11139L2.08487 2.11137L1.36187 1.42053ZM1.35457 8.25798L2.07829 7.56789L2.07821 7.56781L1.35457 8.25798ZM8.60417 15.8608L9.33065 15.1736L9.32789 15.1707L8.60417 15.8608ZM9.28866 15.8608L8.56565 15.17L8.56218 15.1737L9.28866 15.8608ZM16.5383 8.26533L15.8153 7.57447L15.8153 7.57448L16.5383 8.26533ZM16.5383 1.42789L17.2613 0.737037V0.737036L16.5383 1.42789ZM9.95106 1.42789L10.6708 2.12213L10.6741 2.11873L9.95106 1.42789ZM8.9501 2.46565L8.2279 3.15733L8.94755 3.90874L9.66985 3.15988L8.9501 2.46565ZM7.94914 1.42053L7.22482 2.11L7.22694 2.11221L7.94914 1.42053ZM4.65183 4.57728e-05V1.00006L4.65631 1.00004L4.65183 4.57728e-05ZM7.27195 2.07557L7.9959 1.38572L7.99494 1.38471L7.27195 2.07557ZM8.61147 3.48133L9.33794 2.79413L9.33543 2.79149L8.61147 3.48133ZM9.29596 3.48133L8.57191 2.79158L8.56949 2.79414L9.29596 3.48133ZM10.6281 2.08293L9.90511 1.39208L9.90406 1.39318L10.6281 2.08293ZM15.8611 2.08293L16.5841 1.39208L16.5841 1.39207L15.8611 2.08293ZM15.8611 7.61764L16.5841 8.30849L16.5841 8.30849L15.8611 7.61764ZM8.95003 14.8526L8.22657 15.5429L8.94954 16.3005L9.67302 15.5434L8.95003 14.8526ZM2.03899 7.6103L1.31533 8.30046L1.31553 8.30067L2.03899 7.6103ZM2.03899 2.07557L2.76198 2.76643L2.76199 2.76641L2.03899 2.07557ZM4.65178 -0.999954C3.18964 -0.999954 1.73771 -0.42031 0.638866 0.729682L2.08487 2.11137C2.79798 1.36507 3.72358 1.00005 4.65178 1.00005V-0.999954ZM0.638882 0.729666C-1.54121 3.01113 -1.54871 6.6628 0.630921 8.94815L2.07821 7.56781C0.638039 6.05778 0.640947 3.62244 2.08485 2.11139L0.638882 0.729666ZM0.630847 8.94807L7.88045 16.5509L9.32789 15.1707L2.07829 7.56789L0.630847 8.94807ZM7.87769 16.548C8.18342 16.8712 8.58973 17 8.94641 17C9.3031 17 9.70941 16.8712 10.0151 16.548L8.56218 15.1737C8.6924 15.036 8.84422 15 8.94641 15C9.04861 15 9.20043 15.036 9.33064 15.1737L7.87769 16.548ZM10.0117 16.5517C11.2212 15.2859 12.4293 14.0194 13.637 12.7533C14.8449 11.4871 16.0524 10.2213 17.2613 8.95617L15.8153 7.57448C14.6057 8.8403 13.3976 10.1068 12.1899 11.3729C10.982 12.6391 9.7745 13.9049 8.56566 15.17L10.0117 16.5517ZM17.2613 8.95618C19.4426 6.67338 19.4426 3.01985 17.2613 0.737037L15.8153 2.11874C17.2579 3.62851 17.2579 6.06472 15.8153 7.57447L17.2613 8.95618ZM17.2613 0.737036C15.0554 -1.57143 11.4339 -1.5715 9.22806 0.737044L10.6741 2.11873C12.0922 0.634628 14.3971 0.634646 15.8153 2.11874L17.2613 0.737036ZM9.23131 0.733658L8.23035 1.77142L9.66985 3.15988L10.6708 2.12212L9.23131 0.733658ZM9.6723 1.77397L8.67134 0.728844L7.22694 2.11221L8.2279 3.15733L9.6723 1.77397ZM8.67345 0.731056C7.48807 -0.514228 6.00446 -1.00602 4.64735 -0.999944L4.65631 1.00004C5.51945 0.996172 6.45647 1.30282 7.22483 2.11L8.67345 0.731056ZM4.65183 -0.999954H4.65178V1.00005H4.65183V-0.999954ZM4.65178 1.92741C5.31861 1.92741 6.00477 2.19693 6.54895 2.76643L7.99494 1.38471C7.07606 0.423097 5.86864 -0.0725927 4.65178 -0.0725927V1.92741ZM6.54799 2.76541L7.88751 4.17118L9.33543 2.79149L7.9959 1.38572L6.54799 2.76541ZM7.885 4.16853C8.19072 4.49173 8.59703 4.62049 8.95371 4.62049C9.3104 4.62049 9.7167 4.49173 10.0224 4.16853L8.56949 2.79414C8.69971 2.65647 8.85152 2.62049 8.95371 2.62049C9.05591 2.62049 9.20772 2.65647 9.33794 2.79414L7.885 4.16853ZM10.02 4.17108L11.3522 2.77268L9.90406 1.39318L8.57191 2.79158L10.02 4.17108ZM11.3511 2.77378C12.4203 1.65485 14.0689 1.65486 15.1381 2.77379L16.5841 1.39207C14.7272 -0.551214 11.762 -0.551271 9.90511 1.39208L11.3511 2.77378ZM15.1381 2.77377C16.2318 3.91836 16.2318 5.78222 15.1381 6.9268L16.5841 8.30849C18.4164 6.39087 18.4164 3.30971 16.5841 1.39208L15.1381 2.77377ZM15.1381 6.92679C12.8241 9.34842 10.5405 11.7406 8.22703 14.1617L9.67302 15.5434C11.9662 13.1436 14.2914 10.7079 16.5841 8.30849L15.1381 6.92679ZM9.67348 14.1622L2.76245 6.91993L1.31553 8.30067L8.22657 15.5429L9.67348 14.1622ZM2.76265 6.92014C1.66855 5.77294 1.66881 3.91044 2.76198 2.76643L1.316 1.38471C-0.51689 3.30284 -0.514651 6.38166 1.31533 8.30046L2.76265 6.92014ZM2.76199 2.76641C3.30765 2.19536 3.98711 1.92741 4.65178 1.92741V-0.0725927C3.43276 -0.0725927 2.23333 0.424677 1.31599 1.38472L2.76199 2.76641Z" fill="white" mask="url(#path-1-inside-1)"/>
</svg>
